<svg enable-background="new 0 0 24 24" viewBox="0 0 24 24" xmlns="http://www.w3.org/2000/svg"><g fill="#020203"><path d="m13.3 13.3c-.1 0-.1 0 0 0-.2.1-.2.1-.3.2-1 .6-2.2.6-3.2.1-.1-.1-.3-.1-.4-.2 0 0-.1-.1-.1-.1s0 0-.1 0h-.1l-.8.6-.1.1s-.1.1-.1.2v.1s.1.1.1.1c.3.2.8-.1 1.1.1 1.1.6 2.1.5 3.2.2"/><path d="m8.2 6.3c-.7.4-1.3 1.1-1.7 1.8-.2-.1-.4-.2-.5-.2s0 0-.1 0 0 0-.1 0 0 0-.1 0c-.1-.1-.2 0-.2.1v.1.1l.5 1.9.1.6.1.5v.2c.1.3.4.4.6.2l.6-.6.1-.2.3-.4 1.2-1.1.1-.1v-.1s0-.1.1-.1c0-.1 0-.2-.1-.2 0-.1-.1-.1-.1-.1s-.4 0-1-.1c.1-.2.2-.4.4-.6s.4-.4.7-.5"/><path d="m6.9 11c-.1-.3.6-.4.6-.7 0-1.8 1.4-3.3 3.2-3.3s3.2 1.5 3.2 3.3-1.4 3.3-3.2 3.3c-.6 0-1.1-.2-1.6-.4l-.9 1.2c.7.5 1.5.7 2.4.7 1.1 0 2.2-.4 3-1.2l.2.2v.6l3.5 3.7 1.1-1.1-3.4-3.6h-.6l-.2-.2c.7-.8 1.1-1.9 1.1-3.1 0-2.7-2.1-4.8-4.6-4.8s-4.6 2.2-4.6 4.8c0 .4.4.6.5 1"/></g></svg>