<svg enable-background="new 0 0 24 24" viewBox="0 0 24 24" xmlns="http://www.w3.org/2000/svg"><path d="m14 2h-8c-1.1 0-2 .9-2 2v6.1h-1.1c-2 0-2 1.9-2 1.9v5.1s.2 1.7 1.9 1.7h1.3l-.1 1.2c0 1.1.9 2 2 2h12c1.1 0 2-.9 2-2v-12zm-8.5 14.9-1.4.1-.8-3.5-.4 3.5h-1.3l.7-5.1 1.7-.1.8 3.4.8-3.3 1.7-.1.7 5.2h-1.4l-.3-3.5zm12.5 3.1h-12v-1.2h9.1c2.4 0 2.4-1.8 2.4-1.8s0-2.9 0-5-2.3-1.9-2.3-1.9h-9.2v-6.1h7v5h5zm-9.5-3v-5.1h1.9c1.2 0 2 .6 2 1.8s-.9 1.8-2 1.8c-.2 0-.3 0-.5 0v1.5zm6.2-2.1v-.9l1.4-.1v1h.6l-.1 1.2h-.5v.9h-1.4v-.9h-2.1l-.1-1.2c.6-.9.9-1.8.9-3h1.4c0 1.3-.3 2.1-1 3z"/><path d="m10.9 13.7c0-.4-.2-.6-.7-.6h-.4v1.2h.4c.4 0 .7-.2.7-.6z"/><path d="m46 2h-8c-1.1 0-2 .9-2 2v16c0 1.1.9 2 2 2h12c1.1 0 2-.9 2-2v-12zm-8 18v-16h7v5h5v11z"/><path d="m34.8 10.1h12.3s2.3-.1 2.3 1.9 0 5 0 5 0 1.8-2.4 1.8c-3.6 0-11.2 0-12.4 0-1.7 0-1.9-1.7-1.9-1.7v-5.1c.1 0 .2-1.9 2.1-1.9z"/><text fill="#fff" font-family="GloriolaStd-Bold" font-size="7.2447" transform="translate(33.4194 16.9686)">MP4</text><path d="m-36.2 2h-8c-1.1 0-2 .9-2 2v16c0 1.1.9 2 2 2h12c1.1 0 2-.9 2-2v-12zm-8 18v-16h7v5h5v11z"/><path d="m-47.3 10.1h12.3s2.3-.1 2.3 1.9 0 5 0 5 0 1.8-2.4 1.8c-3.6 0-11.2 0-12.4 0-1.7 0-1.9-1.7-1.9-1.7v-5.1c.1 0 .2-1.9 2.1-1.9z"/><text fill="#fff" font-family="GloriolaStd-Bold" font-size="7.2447" transform="translate(-48.1153 16.968)">GPX</text><path d="m-12.2 2h-8c-1.1 0-2 .9-2 2v16c0 1.1.9 2 2 2h12c1.1 0 2-.9 2-2v-12zm-8 18v-16h7v5h5v11z"/><path d="m-24.9 10.1h13.4s2.3-.1 2.3 1.9 0 5 0 5 0 1.8-2.4 1.8c-3.6 0-12.3 0-13.5 0-1.7 0-1.9-1.7-1.9-1.7v-5.1c.1 0 .1-1.9 2.1-1.9z"/><text fill="#fff" font-family="GloriolaStd-Bold" font-size="7.2447" transform="translate(-26.1611 16.9682)">RAW</text></svg>