<?xml version="1.0" encoding="utf-8"?>
<svg version="1.1" id="Laag_1" xmlns="http://www.w3.org/2000/svg" xmlns:xlink="http://www.w3.org/1999/xlink" x="0px" y="0px"
	 viewBox="0 0 24 24" style="enable-background:new 0 0 24 24;" xml:space="preserve">
<g>
	<polygon points="9.4,13 8.9,14.9 9.8,14.9 	"/>
	<path d="M4.5,13H4.2v1.2c0.1,0,0.2,0,0.4,0c0.4,0,0.7-0.2,0.7-0.7C5.2,13.2,5,13,4.5,13z"/>
	<path d="M16.4,2h-8c-1.1,0-2,0.9-2,2l0,6.1H3.7c-2,0-2,1.9-2,1.9v5.1c0,0,0.2,1.7,1.9,1.7c0.4,0,1.4,0,2.9,0l0,1.2c0,1.1,0.9,2,2,2
		h12c1.1,0,2-0.9,2-2V8L16.4,2z M5.3,17l-0.7-1.6c-0.1,0-0.3,0-0.4,0V17H2.8v-5.1h1.8c1.3,0,2.1,0.6,2.1,1.8c0,0.7-0.3,1.1-0.7,1.4
		l1,1.8L5.3,17z M7,17l1.4-5.1l1.9-0.1l1.4,5.1h-1.4l-0.2-0.8H8.6L8.4,17H7z M11.7,11.9l1.4-0.1l0.7,3.8l0.6-3.7l1.5-0.1l0.6,3.8
		l0.7-3.8l1.2,0.1L17.2,17h-1.6l-0.6-2.8L14.5,17h-1.7L11.7,11.9z M20.4,20h-12v-1.2c3,0,6.6,0,8.6,0c2.4,0,2.4-1.8,2.4-1.8
		s0-2.9,0-5s-2.3-1.9-2.3-1.9H8.4V4h7v5h5V20z"/>
</g>
</svg>
