<?xml version="1.0" encoding="utf-8"?>
<svg width="24" height="24" version="1.1" id="Laag_1" xmlns="http://www.w3.org/2000/svg" xmlns:xlink="http://www.w3.org/1999/xlink" x="0px" y="0px"
	 viewBox="0 0 24 24" style="enable-background:new 0 0 24 24;" xml:space="preserve">
<path d="M2,21h15c0.7,0,1.2-0.4,1.6-0.9L24,12l-5.4-8.1c-0.4-0.5-1-0.9-1.7-0.9H2C0.9,3,0,3.9,0,5v14C0,20.1,0.9,21,2,21z M15,10.5
	c0.8,0,1.5,0.7,1.5,1.5s-0.7,1.5-1.5,1.5s-1.5-0.7-1.5-1.5S14.2,10.5,15,10.5z M10,10.5c0.8,0,1.5,0.7,1.5,1.5s-0.7,1.5-1.5,1.5
	S8.5,12.8,8.5,12S9.2,10.5,10,10.5z M5,10.5c0.8,0,1.5,0.7,1.5,1.5S5.8,13.5,5,13.5S3.5,12.8,3.5,12S4.2,10.5,5,10.5z"/>
</svg>
