<?xml version="1.0" encoding="utf-8"?>
<svg version="1.1" id="Laag_1" xmlns="http://www.w3.org/2000/svg" xmlns:xlink="http://www.w3.org/1999/xlink" x="0px" y="0px"
	 viewBox="0 0 24 24" style="enable-background:new 0 0 24 24;" xml:space="preserve">
<g>
	<path d="M11.2,13.7c0-0.4-0.2-0.6-0.7-0.6h-0.3v1.2c0.1,0,0.2,0,0.4,0C10.9,14.4,11.2,14.2,11.2,13.7z"/>
	<path d="M15.6,2h-8c-1.1,0-2,0.9-2,2l0,6.1H4.5c-2,0-2,1.9-2,1.9v5.1c0,0,0.2,1.7,1.9,1.7c0.2,0,0.7,0,1.3,0l0,1.2c0,1.1,0.9,2,2,2
		h12c1.1,0,2-0.9,2-2V8L15.6,2z M6.3,17.1c-1.4,0-2.4-0.7-2.4-2.6c0-2,1.1-2.6,2.4-2.6c0.5,0,1,0.1,1.5,0.2l-0.2,1.2
		c-0.4-0.1-0.8-0.2-1.2-0.2c-0.7,0-1.1,0.4-1.1,1.4c0,1.1,0.3,1.4,1,1.4c0.1,0,0.2,0,0.3,0v-0.6H6.1L6.2,14h1.9v2.7
		C7.4,17,6.8,17.1,6.3,17.1z M19.6,20h-12v-1.2c2.9,0,6.8,0,9.1,0c2.4,0,2.4-1.8,2.4-1.8s0-2.9,0-5s-2.3-1.9-2.3-1.9H7.6V4h7v5h5V20
		z M8.8,17v-5.1h1.9c1.2,0,2,0.6,2,1.8c0,1.2-0.9,1.8-2,1.8c-0.2,0-0.3,0-0.5,0V17H8.8z M12.8,12l1.6-0.1l0.8,1.4l0.8-1.4l1.6,0.1
		l-1.6,2.5l1.6,2.5l-1.6,0.1l-0.8-1.4l-0.8,1.4L12.8,17l1.6-2.5L12.8,12z"/>
</g>
</svg>
