<?xml version="1.0" encoding="utf-8"?>
<svg version="1.1" id="Capa_1" xmlns="http://www.w3.org/2000/svg" xmlns:xlink="http://www.w3.org/1999/xlink" x="0px" y="0px"
	 viewBox="0 0 24 24" style="enable-background:new 0 0 24 24;" xml:space="preserve">
<style type="text/css">
	.st0{fill:#263238;}
	.st1{fill:#FFFFFF;}
</style>
<g>
	<g>
		<g>
			<path class="st0" d="M2.3,22.1c-0.1,0-1.5-0.1-1.5-2c0-0.1-0.4-3.2,1.4-4c0.4-0.1,0.7-0.2,1-0.3l3.2-1.3l1-0.8
				c0.2-0.1,0.4-0.2,0.6-0.2c0.2,0,0.4,0.1,0.6,0.2l1.2,1.2l1.2-1.2c0.2-0.1,0.4-0.2,0.6-0.2c0.2,0,0.4,0.1,0.6,0.2l0.5,0.4
				c0.2,0.1,0.4,0.3,0.5,0.4c0.5,0.5,0.8,0.9,0.8,0.9c0.1,0.2,0.1,0.3,0.1,0.4c0,0.4,0.1,0.7,0.6,1.4c0.1,0.1,0.1,0.2,0,0.2
				c0,0.1-0.1,0.1-0.2,0.1c0,0,0,0,0,0c0,0-0.5,0.1-2.3,2.3c-0.7,1.2-0.4,1.9-0.4,1.9c0,0.1,0,0.1,0,0.2c0,0.1-0.1,0.1-0.2,0.1
				L2.3,22.1z"/>
			<path class="st1" d="M11.5,13.8c0.1,0,0.3,0.1,0.4,0.1l0.5,0.4c0.2,0.1,0.4,0.3,0.5,0.4c0.5,0.5,0.8,0.9,0.8,0.9
				c0.1,0.5,0,0.9,0.7,1.8c0,0,0,0,0,0c-0.1,0-0.5,0.1-2.5,2.4c-0.8,1.3-0.4,2.1-0.4,2.1H2.4c0,0,0,0,0,0c-0.2,0-1.3-0.1-1.3-1.8
				c0,0-0.4-3.1,1.3-3.8c0.4-0.1,0.7-0.2,1-0.3l3.2-1.3l1-0.8c0.2-0.1,0.3-0.1,0.5-0.1c0.2,0,0.3,0.1,0.4,0.1l1.3,1.3l1.3-1.3
				C11.2,13.8,11.4,13.8,11.5,13.8 M11.5,13.4c-0.2,0-0.5,0.1-0.7,0.2c0,0,0,0-0.1,0l-1,1l-1-1c-0.2-0.2-0.4-0.3-0.7-0.3
				c-0.2,0-0.5,0.1-0.7,0.2l-1,0.8l-3.1,1.3c-0.3,0.1-0.6,0.2-0.9,0.3c0,0,0,0-0.1,0c-1.9,0.8-1.6,3.9-1.5,4.2
				c0,2.1,1.5,2.2,1.7,2.2c0,0,0.1,0,0.1,0l9.2,0c0.1,0,0.3-0.1,0.3-0.2c0.1-0.1,0.1-0.3,0-0.4c0,0-0.3-0.6,0.4-1.7
				c1.6-1.9,2.1-2.2,2.2-2.2c0.1,0,0.2-0.1,0.3-0.2c0.1-0.1,0.1-0.3,0-0.5c-0.5-0.6-0.5-0.9-0.6-1.3c0-0.1,0-0.2,0-0.3
				c0-0.1,0-0.1-0.1-0.2c0,0-0.3-0.4-0.8-0.9c-0.1-0.1-0.3-0.3-0.6-0.5l-0.5-0.4C12,13.5,11.7,13.4,11.5,13.4L11.5,13.4z"/>
		</g>
		<g>
			<path class="st0" d="M15.1,22.2c-0.1,0-0.1,0-0.2-0.1s0-0.2,0-0.2l1.4-1.8c0.2-0.3,0.4-0.5,0.4-0.8c0-0.1,0-0.1,0.1-0.2
				c0,0,0.1,0,0.1,0c0,0,0,0,0,0c0.4,0.1,0.8,0.2,1.3,0.2c0.1,0,0.2,0.1,0.2,0.2v1c0,1.3-1.2,1.7-1.9,1.7H15.1z"/>
			<path class="st1" d="M16.9,19.3c0.4,0.1,0.8,0.2,1.3,0.2v1c0,1.5-1.7,1.5-1.7,1.5h-1.4l1.4-1.8C16.7,19.9,16.9,19.6,16.9,19.3
				 M16.9,18.9c-0.1,0-0.2,0-0.2,0.1c-0.1,0.1-0.2,0.2-0.2,0.3c0,0.2-0.2,0.4-0.3,0.7l-1.4,1.8c-0.1,0.1-0.1,0.3,0,0.4
				c0.1,0.1,0.2,0.2,0.4,0.2h1.4c0.7,0,2.1-0.4,2.1-1.9v-1c0-0.2-0.2-0.4-0.4-0.4C17.7,19.1,17.3,19,16.9,18.9
				C16.9,18.9,16.9,18.9,16.9,18.9L16.9,18.9z"/>
		</g>
		<g>
			<path class="st0" d="M9.8,6.4c-1.1,0-2.2-0.2-3-0.6c-0.6-0.2-0.9-0.6-0.9-1c0.2-2.3,0.8-3.5,1.9-3.5C8.4,1.4,9,1.7,9.4,2
				c0.2,0.1,0.4,0.2,0.5,0.2c0.1,0,0.2-0.1,0.4-0.2c0.4-0.3,1-0.7,1.7-0.7c1.1,0,1.7,1.1,1.9,3.5c0,0,0,0.1,0,0.1
				c-0.3,0.4-0.6,0.7-1.1,0.9C11.9,6.2,10.9,6.4,9.8,6.4z"/>
			<path class="st1" d="M11.9,1.5c0.8,0,1.5,0.7,1.7,3.3c-0.2,0.3-0.5,0.6-1,0.8C11.9,6,10.9,6.2,9.8,6.2S7.7,6,6.9,5.6
				C6.4,5.4,6.1,5.1,6.1,4.8c0.2-2.6,1-3.3,1.7-3.3c0.9,0,1.8,0.9,2.1,0.9C10.1,2.4,11,1.5,11.9,1.5 M11.9,1.1
				c-0.7,0-1.3,0.4-1.8,0.7C10,1.9,9.9,2,9.8,2C9.8,2,9.6,1.9,9.5,1.8C9,1.5,8.4,1.2,7.8,1.2c-1.8,0-2,2.7-2.1,3.6
				c0,0.5,0.4,0.9,1,1.2c0.8,0.4,1.9,0.6,3,0.6S12,6.4,12.8,6C13.3,5.8,13.7,5.5,14,5C14,5,14.1,4.9,14.1,4.8
				C14,3.9,13.7,1.1,11.9,1.1L11.9,1.1z"/>
		</g>
		<g>
			<path class="st0" d="M9.7,13.7c-2.3,0-4.1-2.1-4.3-5.4C4.3,7.9,3.7,7.3,3.7,6.6c0-0.7,0.5-1.2,1.5-1.7c0,0,0.1,0,0.1,0
				c0.1,0,0.1,0,0.2,0.1c0.2,0.4,0.6,0.8,1.2,1c0.8,0.4,1.8,0.6,3,0.6c1.2,0,2.3-0.2,3-0.6c0.6-0.3,1-0.7,1.2-1
				c0-0.1,0.1-0.1,0.2-0.1c0,0,0.1,0,0.1,0c1,0.4,1.5,1,1.5,1.7c0,0.7-0.6,1.3-1.7,1.7C13.7,11.6,12,13.7,9.7,13.7z"/>
			<path class="st1" d="M14.1,5.1C15,5.5,15.5,6,15.5,6.6c0,0.6-0.6,1.2-1.7,1.6c-0.2,3.3-1.9,5.3-4.1,5.3s-3.9-2-4.1-5.3
				c-1-0.4-1.7-1-1.7-1.6c0-0.6,0.5-1.1,1.4-1.5c0.2,0.4,0.6,0.8,1.3,1.1c0.8,0.4,1.9,0.6,3.1,0.6c1.1,0,2.3-0.2,3.1-0.6
				C13.4,5.9,13.9,5.5,14.1,5.1 M14.1,4.7c-0.1,0-0.3,0.1-0.4,0.2c-0.1,0.3-0.6,0.6-1.1,0.9c-0.7,0.3-1.8,0.6-2.9,0.6
				c-1.2,0-2.2-0.2-2.9-0.6C6.2,5.6,5.8,5.3,5.6,4.9C5.5,4.8,5.4,4.7,5.3,4.7c-0.1,0-0.1,0-0.2,0C4,5.2,3.5,5.9,3.5,6.6
				c0,0.7,0.6,1.4,1.7,1.9c0.3,3.3,2.1,5.4,4.5,5.4c2.4,0,4.2-2.2,4.5-5.4c1.1-0.5,1.7-1.1,1.7-1.9c0-0.8-0.6-1.4-1.6-1.9
				C14.2,4.7,14.1,4.7,14.1,4.7L14.1,4.7z"/>
		</g>
		<g>
			<path class="st0" d="M13.4,22.6c-0.3,0-0.6-0.1-0.9-0.3c-0.3-0.2-0.5-0.6-0.5-0.9c0-0.4,0.1-0.8,0.3-1l1.7-2.1
				c0.2-0.2,0.4-0.4,0.8-0.5l0.4-0.5c-1.1-1.6-1.1-3.7,0.1-5.1c0.8-1.1,2-1.7,3.3-1.7c0.9,0,1.8,0.3,2.6,0.9c1.8,1.5,2.1,4.1,0.7,6
				c-0.7,1-1.9,1.6-3.2,1.6l0,0c-0.6,0-1.2-0.1-1.7-0.4l-0.5,0.5c0,0.3-0.1,0.7-0.4,0.9l-1.7,2.1C14.3,22.4,13.8,22.6,13.4,22.6z
				 M18.6,12.2c-0.8,0-1.5,0.4-2.1,1c-0.8,1.1-0.6,2.7,0.5,3.6c0.4,0.3,1,0.5,1.5,0.5c0.8,0,1.5-0.4,2.1-1c0.5-0.5,0.7-1.3,0.6-1.9
				c-0.1-0.7-0.5-1.3-1-1.7C19.7,12.3,19.1,12.2,18.6,12.2z"/>
			<path class="st1" d="M18.6,10.6c0.9,0,1.7,0.3,2.4,0.9c1.7,1.4,2,3.9,0.7,5.7c-0.7,1-1.9,1.5-3.1,1.5c-0.6,0-1.2-0.1-1.7-0.4
				L16.4,19c0,0.3-0.1,0.6-0.3,0.8l-1.7,2.1c-0.2,0.3-0.6,0.4-1,0.4c-0.3,0-0.5-0.1-0.7-0.2c-0.5-0.4-0.6-1.2-0.2-1.7l1.7-2.1
				c0.2-0.2,0.4-0.4,0.7-0.4l0.6-0.7c-1.1-1.5-1.2-3.5,0-5C16.3,11.2,17.4,10.6,18.6,10.6 M18.5,17.5c0.8,0,1.6-0.4,2.2-1.1
				c1-1.2,0.8-3-0.5-3.9c-0.5-0.4-1.1-0.6-1.7-0.6c-0.8,0-1.6,0.4-2.2,1.1c-0.9,1.2-0.7,2.9,0.5,3.9C17.4,17.3,17.9,17.5,18.5,17.5
				 M18.6,10.2c-1.4,0-2.6,0.6-3.5,1.7c-1.2,1.5-1.3,3.6-0.2,5.2l-0.3,0.3c-0.4,0.1-0.6,0.3-0.8,0.5l-1.7,2.1
				c-0.3,0.3-0.4,0.8-0.3,1.2c0.1,0.4,0.3,0.8,0.6,1.1c0.3,0.2,0.6,0.3,1,0.3c0.5,0,1-0.2,1.3-0.6l1.7-2.1c0.2-0.2,0.4-0.5,0.4-0.9
				l0.3-0.4c0.5,0.2,1.1,0.3,1.6,0.3c1.4,0,2.6-0.6,3.4-1.7c1.4-2,1.1-4.7-0.8-6.2C20.5,10.6,19.6,10.2,18.6,10.2L18.6,10.2z
				 M18.5,17.1c-0.5,0-1-0.2-1.4-0.5c-1-0.8-1.2-2.3-0.4-3.3c0.5-0.6,1.2-0.9,1.9-0.9c0.5,0,1,0.2,1.4,0.5c0.5,0.4,0.9,0.9,1,1.5
				c0.1,0.6-0.1,1.3-0.5,1.8C20,16.8,19.3,17.1,18.5,17.1L18.5,17.1z"/>
		</g>
	</g>
</g>
</svg>
