<svg enable-background="new 0 0 24 24" viewBox="0 0 24 24" xmlns="http://www.w3.org/2000/svg"><path d="m17.1 13.7c0-.4-.2-.6-.7-.6h-.3v1.2h.4c.3 0 .6-.2.6-.6z"/><path d="m16.4 2h-8c-1.1 0-2 .9-2 2v6.1h-2.7c-2 0-2 1.9-2 1.9v5.1s.2 1.7 1.9 1.7h2.9v1.2c0 1.1.9 2 2 2h12c1.1 0 2-.9 2-2v-12zm-8.7 14.9-1.6.1-.8-1.4-.8 1.4-1.6-.1 1.6-2.5-1.6-2.5 1.6-.1.8 1.4.8-1.4 1.6.1-1.6 2.5zm12.7 3.1h-12v-1.2h8.6c2.4 0 2.4-1.8 2.4-1.8s0-2.9 0-5-2.3-1.9-2.3-1.9h-8.7v-6.1h7v5h5zm-12.5-3.1.7-5.1 1.7-.1.8 3.4.8-3.3 1.7-.1.7 5.1h-1.3l-.3-3.5-.8 3.5-1.6.2-.8-3.5-.3 3.5h-1.3zm6.8 0v-5.1h1.9c1.2 0 2 .6 2 1.8s-.9 1.8-2 1.8c-.2 0-.3 0-.5 0v1.4h-1.4z"/><text fill="#fff" font-family="GloriolaStd-Bold" font-size="7.2447" transform="translate(-33.2494 17.2321)">XMP</text></svg>