<svg enable-background="new 0 0 24 24" viewBox="0 0 24 24" xmlns="http://www.w3.org/2000/svg"><g fill="#020203"><path d="m13.16 13.46c-.03.02-.05.04-.08.05-.02.01-.03.02-.05.03-.09.06-.18.11-.27.16-1.36.75-3.04.85-4.54.13-.2-.09-.38-.2-.56-.32-.05-.03-.1-.07-.15-.1-.04-.01-.07-.02-.12-.02-.07 0-.13.02-.18.05l-.07.05-1.09.85-.12.1c-.05.06-.08.14-.08.23 0 .07.02.14.06.2.05.04.11.09.16.13.38.29 1.15-.09 1.59.12 1.56.75 2.98.69 4.54.29"/><path d="m5.98 4.02c-1.02.64-1.82 1.52-2.35 2.52-.38-.18-.66-.34-.7-.36.04.02.01 0-.04-.03-.03-.03-.07-.05-.11-.06-.02-.01-.03-.02-.05-.02-.03-.01-.07-.02-.11-.02-.01 0-.02 0-.03 0-.03 0-.06.01-.09.01h-.01c-.14.05-.26.17-.3.32-.02.06-.02.12-.01.18 0 .05.01.1.03.16l.66 2.47.21.78.18.68.06.22c.12.46.5.56.83.22l.75-.75.21-.21.49-.49 1.5-1.5.1-.1s.01-.01.02-.02l.06-.07c.04-.05.07-.1.09-.16 0-.02.01-.03.01-.05.03-.12 0-.23-.08-.33-.07-.08-.15-.14-.25-.17 0 0-.6.06-1.47-.08.19-.3.41-.58.67-.83.27-.27.58-.51.93-.71"/><path d="m4.15 10.45c-.09-.35.85-.57.85-.95 0-2.49 2.01-4.5 4.5-4.5s4.5 2.01 4.5 4.5-2.01 4.5-4.5 4.5c-.8 0-1.55-.21-2.2-.57l-1.25 1.58c1 .63 2.18.99 3.45.99 1.61 0 3.09-.59 4.23-1.57l.27.28v.79l5 4.99 1.49-1.49-4.99-5h-.79l-.28-.27c.98-1.14 1.57-2.62 1.57-4.23 0-3.59-2.91-6.5-6.5-6.5s-6.5 2.91-6.5 6.5c0 .51.59.82.7 1.3"/></g></svg>