<svg enable-background="new 0 0 50 50" height="50" viewBox="0 0 50 50" width="50" xmlns="http://www.w3.org/2000/svg"><path d="m38.252 22.428-9.459 20.113c-.546 1.145-1.741 1.845-2.988 1.845s-2.443-.7-2.962-1.845l-9.485-20.113c-.675-1.429-.857-3.066-.857-4.651 0-7.354 5.951-13.305 13.306-13.305 7.354 0 13.305 5.951 13.305 13.305-.003 1.584-.184 3.222-.86 4.651zm-12.447-11.304c-3.664 0-6.652 2.988-6.652 6.652s2.988 6.652 6.652 6.652 6.652-2.988 6.652-6.652-2.988-6.652-6.652-6.652z" fill="#367dc0"/><circle cx="25.806" cy="17.812" fill="none" r="5.994" stroke="#367dc0" stroke-miterlimit="10" stroke-width="4"/></svg>