<svg enable-background="new 0 0 24 24" viewBox="0 0 24 24" xmlns="http://www.w3.org/2000/svg"><path d="m15.6 2h-8c-1.1 0-2 .9-2 2v6.1h-1.1c-2 0-2 1.9-2 1.9v5.1s.2 1.7 1.9 1.7h1.3v1.2c0 1.1.9 2 2 2h12c1.1 0 2-.9 2-2v-12zm-8.9 14c0 1-.3 1.5-1.1 2.1l-1-.8c.5-.4.7-.8.7-1.3v-4.1h1.4zm12.9 4h-12v-1.2h9.1c2.4 0 2.4-1.8 2.4-1.8s0-2.9 0-5-2.3-1.9-2.3-1.9h-9.2v-6.1h7v5h5zm-11.9-3v-5.1h1.9c1.2 0 2 .6 2 1.8s-.9 1.8-2 1.8c-.2 0-.3 0-.5 0v1.5zm7.1-1.2h.3v-.6h-.6l.1-1.2h1.9v2.7c-.7.3-1.3.3-1.8.3-1.4 0-2.4-.7-2.4-2.6 0-2 1.1-2.6 2.4-2.6.5 0 1 .1 1.5.2l-.2 1.2c-.4-.1-.8-.2-1.2-.2-.7 0-1.1.4-1.1 1.4 0 1.1.4 1.4 1.1 1.4z"/><path d="m10.1 13.7c0-.4-.2-.6-.7-.6h-.3v1.2h.4c.4 0 .6-.2.6-.6z"/></svg>