<svg enable-background="new 0 0 24 24" viewBox="0 0 24 24" xmlns="http://www.w3.org/2000/svg"><path d="m5 15v.7h.5c.4 0 .7-.1.7-.4 0-.1-.1-.3-.2-.4h-1z"/><path d="m6 13.4c0-.2-.1-.3-.3-.3h-.7v.7h.8c.1-.1.2-.3.2-.4z"/><path d="m15.7 2h-8c-1.1 0-2 .9-2 2v6.1h-1.1c-2 0-2 1.9-2 1.9v5.1s.2 1.7 1.9 1.7h1.3v1.2c0 1.1.9 2 2 2h12c1.1 0 2-.9 2-2v-12zm-10.4 15c-.4 0-1.2-.1-1.8-.1v-5h2.3c1 0 1.5.6 1.5 1.3 0 .5-.3.9-.7 1.2.6.3.9.7.9 1.3 0 .9-.8 1.3-2.2 1.3zm14.4 3h-12v-1.2h9.1c2.4 0 2.4-1.8 2.4-1.8s0-2.9 0-5-2.3-1.9-2.3-1.9h-9.2v-6.1h7v5h5zm-11.9-3 .7-5.1 1.7-.1.8 3.4.8-3.3 1.7-.1.7 5.1h-1.3l-.3-3.5-.8 3.5-1.6.1-.8-3.5-.3 3.5zm6.7 0v-5.1h1.9c1.2 0 2 .6 2 1.8s-.9 1.8-2 1.8c-.2 0-.3 0-.5 0v1.5z"/><path d="m16.9 13.7c0-.4-.2-.6-.7-.6h-.3v1.2h.4c.3 0 .6-.2.6-.6z"/></svg>