<?xml version="1.0" encoding="utf-8"?>
<svg version="1.1" id="Capa_1" xmlns="http://www.w3.org/2000/svg" xmlns:xlink="http://www.w3.org/1999/xlink" x="0px" y="0px"
	 width="24" height="24" viewBox="0 0 24 24" style="enable-background:new 0 0 24 24;" xml:space="preserve">
<g>
	<g>
		<g>
			<path fill="#FFF" d="M18.9,19.8C18.9,19.8,18.9,19.8,18.9,19.8c-0.5,0-0.9-0.1-1.3-0.2c0,0.3-0.2,0.6-0.4,0.9l-1.4,1.8l1.4,0
				c0,0,1.7,0,1.7-1.5"/>
			<path fill="#FFF" d="M7.6,5.9c0.8,0.4,1.8,0.6,2.9,0.6c1.1,0,2.1-0.2,2.9-0.6c0.5-0.2,0.8-0.5,1-0.8c0,0,0,0,0,0c-0.5-5.6-3.3-2.4-3.8-2.4
				c-0.6,0-3.3-3.1-3.8,2.4c0,0,0,0,0,0C6.8,5.4,7.1,5.7,7.6,5.9z"/>
			<path fill="#FFF" d="M6.3,8.5c0.2,3.3,1.9,5.3,4.1,5.3s3.9-2,4.1-5.3c1.1-0.4,1.7-1,1.7-1.6c0-0.6-0.5-1.1-1.4-1.5c-0.2,0.4-0.7,0.8-1.3,1.1
				c-0.8,0.4-2,0.6-3.1,0.6c-1.2,0-2.3-0.2-3.1-0.6C6.6,6.2,6.2,5.8,6,5.4C5.1,5.8,4.6,6.3,4.6,6.9C4.6,7.5,5.3,8.1,6.3,8.5z"/>
			<path fill="#FFF" d="M21.8,11.8c-1.7-1.4-4.2-1.1-5.6,0.7c-1.2,1.5-1.1,3.5,0,5l-0.6,0.7c-0.3,0-0.5,0.2-0.7,0.4l-1.7,2.1
				c-0.4,0.5-0.3,1.3,0.2,1.7c0.5,0.4,1.3,0.3,1.7-0.2l1.7-2.1c0.2-0.2,0.3-0.5,0.3-0.8l0.6-0.7c1.6,0.8,3.7,0.4,4.8-1.1
				C23.8,15.7,23.5,13.2,21.8,11.8z M21.5,16.7c-1,1.2-2.7,1.4-3.9,0.5c-1.2-1-1.4-2.7-0.5-3.9c1-1.2,2.7-1.4,3.9-0.5
				C22.3,13.7,22.5,15.5,21.5,16.7z"/>
		</g>
	</g>
</g>
<path fill="#FFF" d="M14.5,15.9c0,0-0.3-0.4-0.8-0.9l0,0l0,0c-0.1-0.1-0.3-0.3-0.5-0.4l0,0l-0.5-0.4c-0.3-0.2-0.6-0.2-0.9,0l-1.3,1.3l-1.3-1.3
	c-0.2-0.2-0.6-0.2-0.9,0l-1,0.8l-3.2,1.3c-0.3,0.1-0.6,0.2-1,0.3c-1.7,0.7-1.3,3.8-1.3,3.8c0,1.9,1.3,1.8,1.3,1.8h9.2
	c0,0-0.4-0.8,0.4-2.1c2.1-2.5,2.5-2.4,2.5-2.4C14.5,16.8,14.6,16.4,14.5,15.9z"/>
</svg>
