<?xml version="1.0" encoding="utf-8"?>
<svg version="1.1" id="Capa_1" xmlns="http://www.w3.org/2000/svg" xmlns:xlink="http://www.w3.org/1999/xlink" x="0px" y="0px"
	 viewBox="0 0 24 24" style="enable-background:new 0 0 24 24;" xml:space="preserve">
<style type="text/css">
	.st0{fill:#263238;}
	.st1{fill:#FFFFFF;}
</style>
<g>
	<g>
		<g>
			<path class="st0" d="M2.4,22.4c-0.2,0-1.5-0.1-1.5-2c0-0.1-0.4-3.3,1.5-4.1c0.4-0.1,0.7-0.2,1-0.3l3.3-1.3l1-0.8
				c0.2-0.1,0.4-0.2,0.6-0.2c0.2,0,0.4,0.1,0.6,0.2l1.2,1.2l1.2-1.2c0.2-0.1,0.4-0.2,0.6-0.2s0.4,0.1,0.6,0.2l0.5,0.4
				c0.2,0.1,0.4,0.3,0.5,0.4c0.5,0.5,0.8,0.9,0.8,0.9c0.1,0.5,0.3,1.4,1,2.2c0,0,0.1,0,0.1,0.1c0,0.1,0,0.2,0,0.2
				c0,0.1-0.1,0.1-0.1,0.1c0,0,0,0,0,0c0,0,0,0-0.1,0c-0.2,0.1-0.6,0.6-1.7,1.9c-0.7,1.2-0.5,1.9-0.5,2c0,0.1,0,0.1,0,0.2
				c0,0.1-0.1,0.1-0.2,0.1L2.4,22.4z"/>
			<path class="st1" d="M11.9,13.8c0.2,0,0.3,0.1,0.5,0.2l0.5,0.4c0.2,0.1,0.4,0.3,0.5,0.4c0.5,0.5,0.8,0.9,0.8,0.9
				c0.1,0.5,0.3,1.5,1.1,2.3c-0.1,0-0.6,0.4-1.9,2c-0.8,1.3-0.5,2.2-0.5,2.2H2.5c0,0,0,0,0,0c-0.2,0-1.3-0.1-1.3-1.8
				c0,0-0.4-3.2,1.3-3.9c0.4-0.1,0.7-0.2,1-0.3l3.3-1.3l1-0.8c0.2-0.1,0.3-0.2,0.5-0.2s0.3,0.1,0.4,0.2l1.3,1.3l1.3-1.3
				C11.5,13.9,11.7,13.8,11.9,13.8 M15.3,18C15.3,18,15.3,18.1,15.3,18C15.3,18.1,15.2,18,15.3,18C15.2,18,15.3,18,15.3,18
				 M11.9,13.4c-0.2,0-0.5,0.1-0.7,0.2c0,0,0,0-0.1,0l-1,1l-1-1c-0.2-0.2-0.4-0.3-0.7-0.3c-0.3,0-0.5,0.1-0.7,0.2l-1,0.8l-3.2,1.3
				c-0.3,0.1-0.6,0.2-1,0.3c0,0,0,0-0.1,0c-1.9,0.8-1.6,3.9-1.6,4.3c0,2.2,1.5,2.2,1.7,2.2c0,0,0.1,0,0.1,0l10.3,0
				c0.1,0,0.3-0.1,0.3-0.2c0.1-0.1,0.1-0.2,0-0.4c0,0-0.2-0.7,0.5-1.8c1-1.2,1.4-1.6,1.6-1.8c0,0,0,0,0,0c0,0,0.1,0,0.1,0
				c0.1,0,0.2-0.1,0.3-0.3c0-0.1,0-0.3-0.1-0.4c0-0.1-0.1-0.1-0.2-0.1c-0.6-0.8-0.8-1.6-0.9-2c0-0.1,0-0.1-0.1-0.2
				c0,0-0.3-0.4-0.9-1c-0.1-0.1-0.3-0.3-0.6-0.5l-0.5-0.4C12.3,13.5,12.1,13.4,11.9,13.4L11.9,13.4z"/>
		</g>
		<g>
			<path class="st0" d="M14.5,22.5c-0.1,0-0.1,0-0.2-0.1s0-0.2,0-0.2l1.4-1.8l0.1-0.2c0.2-0.2,0.5-0.7,0.5-0.9c0-0.1,0-0.1,0.1-0.2
				c0,0,0.1,0,0.1,0c0,0,0,0,0,0c0.2,0,0.4,0.1,0.7,0.3c0.4,0.2,1.1,0.4,1.3,0.4c0.1,0,0.2,0.1,0.2,0.2v0.8c0,1.4-1.3,1.7-1.9,1.7
				H14.5z"/>
			<path class="st1" d="M16.6,19.3c0.4,0.1,1.6,0.7,2.1,0.7v0.4v0.4c0,1.5-1.7,1.5-1.7,1.5h-2.4l1.4-1.8
				C16.1,20.1,16.6,19.6,16.6,19.3 M16.6,18.9c-0.1,0-0.2,0-0.2,0.1c-0.1,0.1-0.2,0.2-0.2,0.3c0,0.2-0.3,0.6-0.5,0.8
				c0,0.1-0.1,0.1-0.1,0.2L14.2,22c-0.1,0.1-0.1,0.3,0,0.4c0.1,0.1,0.2,0.2,0.4,0.2h2.4c0.7,0,2.1-0.4,2.1-1.9v-0.4v-0.4
				c0-0.2-0.2-0.4-0.4-0.4c-0.2,0-0.9-0.3-1.3-0.4C17.1,19,16.8,18.9,16.6,18.9C16.6,18.9,16.6,18.9,16.6,18.9L16.6,18.9z"/>
		</g>
		<g>
			<path class="st0" d="M10.1,6.3C8.9,6.3,7.8,6.1,7,5.7c-0.6-0.2-0.9-0.6-0.9-1c0.2-2.4,0.9-3.6,2-3.6c0.6,0,1.2,0.4,1.6,0.6
				C9.8,1.9,10.1,2,10.2,2c0.1,0,0.2-0.1,0.4-0.2c0.5-0.3,1.1-0.7,1.7-0.7c1.1,0,1.8,1.2,2,3.6c0,0,0,0.1,0,0.1
				c-0.3,0.4-0.6,0.7-1.1,0.9C12.3,6.1,11.2,6.3,10.1,6.3z"/>
			<path class="st1" d="M12.3,1.3c0.8,0,1.5,0.7,1.8,3.4c-0.2,0.3-0.5,0.6-1,0.8c-0.8,0.4-1.8,0.6-3,0.6s-2.2-0.2-3-0.6
				C6.6,5.3,6.3,5,6.3,4.7C6.5,2,7.2,1.3,8,1.3c0.9,0,1.8,0.9,2.1,0.9C10.4,2.2,11.4,1.3,12.3,1.3 M12.3,0.9
				C12.3,0.9,12.3,0.9,12.3,0.9c-0.7,0-1.4,0.4-1.8,0.7c-0.1,0.1-0.2,0.2-0.3,0.2c-0.1,0-0.2-0.1-0.4-0.2C9.3,1.3,8.7,0.9,8,0.9
				C6.2,0.9,6,3.7,5.9,4.6c0,0.5,0.4,1,1.1,1.2c0.8,0.4,1.9,0.6,3.1,0.6s2.3-0.2,3.1-0.7c0.5-0.2,0.9-0.5,1.2-1
				c0.1-0.1,0.1-0.2,0.1-0.3C14.4,3.7,14.1,0.9,12.3,0.9L12.3,0.9z"/>
		</g>
		<g>
			<path class="st0" d="M10,13.8c-2.4,0-4.2-2.2-4.4-5.5C4.5,7.8,3.8,7.2,3.8,6.5c0-0.7,0.5-1.3,1.6-1.7c0,0,0.1,0,0.1,0
				c0.1,0,0.1,0,0.2,0.1c0.2,0.4,0.6,0.8,1.2,1C7.6,6.3,8.7,6.5,10,6.5c1.2,0,2.3-0.2,3.1-0.6c0.6-0.3,1.1-0.7,1.2-1
				c0-0.1,0.1-0.1,0.2-0.1c0,0,0.1,0,0.1,0c1,0.5,1.6,1,1.6,1.7c0,0.7-0.6,1.3-1.7,1.8C14.1,11.6,12.4,13.8,10,13.8z"/>
			<path class="st1" d="M14.5,5c0.9,0.4,1.4,0.9,1.4,1.5c0,0.6-0.6,1.2-1.7,1.6c-0.2,3.4-1.9,5.4-4.2,5.4s-4-2-4.2-5.4
				C4.7,7.7,4,7.1,4,6.5C4,5.9,4.5,5.4,5.4,5c0.2,0.4,0.6,0.8,1.3,1.1C7.6,6.5,8.7,6.7,10,6.7c1.1,0,2.4-0.2,3.2-0.6
				C13.7,5.8,14.3,5.4,14.5,5 M14.5,4.6c-0.1,0-0.3,0.1-0.4,0.2C14,5.1,13.5,5.5,13,5.7c-0.7,0.4-1.9,0.6-3,0.6
				c-1.2,0-2.3-0.2-3-0.6C6.4,5.5,6,5.2,5.8,4.8C5.7,4.7,5.6,4.6,5.4,4.6c-0.1,0-0.1,0-0.2,0C4.2,5.1,3.6,5.7,3.6,6.5
				c0,0.7,0.7,1.4,1.8,1.9C5.7,11.8,7.5,14,10,14c2.5,0,4.3-2.2,4.6-5.5c1.1-0.5,1.8-1.2,1.8-1.9c0-0.8-0.6-1.4-1.7-1.9
				C14.6,4.6,14.5,4.6,14.5,4.6L14.5,4.6z"/>
		</g>
		<g>
			<path class="st0" d="M13.8,22.8c-0.3,0-0.6-0.1-0.9-0.3c-0.3-0.2-0.5-0.6-0.5-1c0-0.4,0.1-0.8,0.3-1l1.7-2.2
				c0.2-0.2,0.4-0.4,0.8-0.5l0.5-0.5c-1.1-1.7-1.1-3.7,0.1-5.2c0.8-1.1,2.1-1.7,3.4-1.7c1,0,1.9,0.3,2.6,0.9
				c1.8,1.5,2.1,4.2,0.8,6.1c-0.7,1-2,1.6-3.3,1.6l0,0c-0.6,0-1.2-0.1-1.7-0.4L17,19.3c0,0.3-0.1,0.7-0.4,0.9l-1.7,2.1
				C14.7,22.6,14.2,22.8,13.8,22.8z M19.1,12.2c-0.8,0-1.6,0.4-2.1,1c-0.9,1.1-0.6,2.8,0.5,3.7c0.5,0.3,1,0.5,1.6,0.5
				c0.8,0,1.6-0.4,2.1-1c0.5-0.6,0.7-1.3,0.6-2c-0.1-0.7-0.5-1.3-1.1-1.7C20.2,12.4,19.7,12.2,19.1,12.2z"/>
			<path class="st1" d="M19.1,10.6c0.9,0,1.8,0.3,2.5,0.9c1.7,1.4,2,4,0.7,5.8c-0.7,1-1.9,1.5-3.1,1.5c-0.6,0-1.2-0.1-1.8-0.4
				l-0.6,0.7c0,0.3-0.1,0.6-0.3,0.8l-1.7,2.2c-0.2,0.3-0.6,0.5-1,0.5c-0.3,0-0.5-0.1-0.7-0.3c-0.5-0.4-0.6-1.2-0.2-1.7l1.7-2.2
				c0.2-0.2,0.4-0.4,0.7-0.4l0.6-0.7c-1.1-1.5-1.2-3.6,0-5.1C16.7,11.2,17.9,10.6,19.1,10.6 M19,17.6c0.8,0,1.7-0.4,2.3-1.1
				c1-1.2,0.8-3.1-0.5-4c-0.5-0.4-1.1-0.6-1.7-0.6c-0.8,0-1.7,0.4-2.3,1.1c-0.9,1.2-0.7,3,0.5,4C17.8,17.4,18.4,17.6,19,17.6
				 M19.1,10.2c-1.4,0-2.7,0.6-3.6,1.8c-1.2,1.5-1.3,3.6-0.2,5.3l-0.3,0.4c-0.4,0.1-0.6,0.3-0.8,0.5l-1.8,2.2
				c-0.3,0.3-0.4,0.8-0.3,1.2c0.1,0.4,0.3,0.8,0.6,1.1c0.3,0.2,0.6,0.3,1,0.3c0.5,0,1-0.2,1.3-0.6l1.7-2.1c0.2-0.2,0.4-0.5,0.4-0.9
				l0.3-0.4c0.5,0.2,1.1,0.3,1.7,0.3c1.4,0,2.7-0.6,3.5-1.7c1.5-2,1.1-4.8-0.8-6.4C21.1,10.6,20.1,10.2,19.1,10.2L19.1,10.2z
				 M19,17.2c-0.5,0-1-0.2-1.5-0.5c-1-0.9-1.2-2.4-0.4-3.4c0.5-0.6,1.2-0.9,2-0.9c0.5,0,1,0.2,1.5,0.5c0.5,0.4,0.9,0.9,1,1.6
				c0.1,0.7-0.1,1.3-0.5,1.8C20.5,16.9,19.8,17.2,19,17.2L19,17.2z"/>
		</g>
	</g>
</g>
</svg>
