<?xml version="1.0" encoding="UTF-8"?>
<!DOCTYPE svg PUBLIC "-//W3C//DTD SVG 1.1//EN" "http://www.w3.org/Graphics/SVG/1.1/DTD/svg11.dtd">
<svg version="1.1" id="Laag_1" xmlns="http://www.w3.org/2000/svg" xmlns:xlink="http://www.w3.org/1999/xlink" x="0px" y="0px" width="300px" height="300px" viewBox="0 0 300 300" enable-background="new 0 0 300 300" xml:space="preserve">

             <path fill="#B0BEC5" id="brightness-icon" d="M149.689,88.107c-34.128,0-61.893,27.765-61.893,61.891c0,34.131,27.765,61.895,61.893,61.895  c34.131,0,61.895-27.764,61.895-61.895C211.584,115.872,183.82,88.107,149.689,88.107z M84.874,102.382L51.09,68.594l17.505-17.505  l33.835,33.835C95.722,89.808,89.797,95.702,84.874,102.382z M197.309,85.185l34.096-34.096l17.508,17.505l-34.145,34.146  C209.882,96.031,203.988,90.105,197.309,85.185z M70.182,162.378H22.5V137.62h47.683c-0.627,4.037-0.952,8.17-0.952,12.378  C69.23,154.209,69.555,158.344,70.182,162.378z M137.622,70.443V22.5h24.758v48.042c-4.134-0.657-8.374-1.003-12.69-1.003  C145.589,69.539,141.559,69.849,137.622,70.443z M102.431,215.077L68.596,248.91L51.09,231.402l33.784-33.784  C89.795,204.299,95.722,210.191,102.431,215.077z M277.5,137.62v24.758h-48.301c0.626-4.034,0.951-8.169,0.951-12.38  c0-4.208-0.325-8.341-0.951-12.378H277.5z M162.38,229.459V277.5h-24.758v-47.943c3.937,0.596,7.967,0.905,12.067,0.905  C154.006,230.462,158.246,230.115,162.38,229.459z M214.768,197.261l34.145,34.142l-17.508,17.51l-34.096-34.096  C203.988,209.895,209.884,203.967,214.768,197.261z">

        <animateTransform attributeName="transform" begin="0s" dur="7s" type="rotate" from="0 150 150" to="360 150 150" repeatCount="indefinite"/>
    </path>

</svg>
